<svg xmlns="http://www.w3.org/2000/svg" viewBox="0 0 660 500" width="100%" role="img" aria-label="Vue axonométrique, jonction repérée"><title>Vue axonométrique, jonction repérée</title><rect width="660" height="500" fill="#ffffff"/><defs>
<pattern id="bois" width="10" height="10" patternUnits="userSpaceOnUse" patternTransform="rotate(45)">
  <rect width="10" height="10" fill="#e3cba4"/>
  <line x1="0" y1="0" x2="0" y2="10" stroke="#a8875a" stroke-width="2"/>
</pattern>
<pattern id="terre" width="12" height="12" patternUnits="userSpaceOnUse" patternTransform="rotate(45)">
  <rect width="12" height="12" fill="#c8b79c"/>
  <line x1="0" y1="0" x2="0" y2="12" stroke="#a08a6b" stroke-width="1.5"/>
</pattern>
<pattern id="isol" width="9" height="9" patternUnits="userSpaceOnUse">
  <rect width="9" height="9" fill="#f7dd9a"/>
  <circle cx="4.5" cy="4.5" r="1.6" fill="#dcae3e"/>
</pattern>
</defs><rect x="26" y="20" width="298" height="26" rx="13" fill="#244b66"/><text x="175.105" y="37.5" font-family="Segoe UI,Arial,sans-serif" font-size="13.5" fill="#ffffff" text-anchor="middle" font-weight="600">Vous saisissez le rez-de-chaussée</text><polygon points="272.0,298.2 450.4,401.2 308.4,483.2 130.0,380.2" fill="url(#terre)" stroke="#a08a6b" stroke-width="1.5"/><polygon points="185.4,380.2 308.4,451.2 308.4,393.2 185.4,322.2" fill="#e8eef2" stroke="#1c2a33" stroke-width="1.7"/><polygon points="395.0,401.2 308.4,451.2 308.4,393.2 395.0,343.2" fill="#dde7ed" stroke="#1c2a33" stroke-width="1.7"/><line x1="357.6743371481684" y1="397.2" x2="496" y2="397.2" stroke="#b9cad3" stroke-width="1.3" stroke-dasharray="3 3"/><text x="502" y="401.16" font-family="Segoe UI,Arial,sans-serif" font-size="12.5" fill="#667984" text-anchor="start" font-weight="400">Cave non chauffée</text><polygon points="272.0,260.2 395.0,331.2 308.4,381.2 185.4,310.2" fill="#dfe8ee" stroke="#1c2a33" stroke-width="1.7"/><polygon points="395.0,331.2 308.4,381.2 308.4,393.2 395.0,343.2" fill="#c2d0d9" stroke="#1c2a33" stroke-width="1.7"/><polygon points="185.4,310.2 308.4,381.2 308.4,393.2 185.4,322.2" fill="#c2d0d9" stroke="#1c2a33" stroke-width="1.7"/><polygon points="185.4,310.2 308.4,381.2 308.4,305.2 185.4,234.2" fill="#eef4f7" stroke="#1c2a33" stroke-width="1.7"/><polygon points="395.0,331.2 308.4,381.2 308.4,305.2 395.0,255.2" fill="#dde7ed" stroke="#1c2a33" stroke-width="1.7"/><line x1="357.6743371481684" y1="318.2" x2="496" y2="318.2" stroke="#b9cad3" stroke-width="1.3" stroke-dasharray="3 3"/><text x="502" y="322.16" font-family="Segoe UI,Arial,sans-serif" font-size="12.5" fill="#667984" text-anchor="start" font-weight="400">Rez-de-chaussée</text><polygon points="272.0,172.2 395.0,243.2 308.4,293.2 185.4,222.2" fill="#dfe8ee" stroke="#1c2a33" stroke-width="1.7"/><polygon points="395.0,243.2 308.4,293.2 308.4,305.2 395.0,255.2" fill="#c2d0d9" stroke="#1c2a33" stroke-width="1.7"/><polygon points="185.4,222.2 308.4,293.2 308.4,305.2 185.4,234.2" fill="#c2d0d9" stroke="#1c2a33" stroke-width="1.7"/><polygon points="185.4,222.2 308.4,293.2 308.4,217.2 185.4,146.2" fill="#eef4f7" stroke="#1c2a33" stroke-width="1.7"/><polygon points="395.0,243.2 308.4,293.2 308.4,217.2 395.0,167.2" fill="#dde7ed" stroke="#1c2a33" stroke-width="1.7"/><line x1="357.6743371481684" y1="230.2" x2="496" y2="230.2" stroke="#b9cad3" stroke-width="1.3" stroke-dasharray="3 3"/><text x="502" y="234.16000000000003" font-family="Segoe UI,Arial,sans-serif" font-size="12.5" fill="#667984" text-anchor="start" font-weight="400">Niveau 1</text><polygon points="272.0,84.2 395.0,155.2 308.4,205.2 185.4,134.2" fill="#c6d3dc" stroke="#1c2a33" stroke-width="1.7"/><polygon points="395.0,155.2 308.4,205.2 308.4,217.2 395.0,167.2" fill="#adbcc6" stroke="#1c2a33" stroke-width="1.7"/><polygon points="185.4,134.2 308.4,205.2 308.4,217.2 185.4,146.2" fill="#adbcc6" stroke="#1c2a33" stroke-width="1.7"/><line x1="357.6743371481684" y1="176.2" x2="496" y2="176.2" stroke="#b9cad3" stroke-width="1.3" stroke-dasharray="3 3"/><text x="502" y="180.16000000000003" font-family="Segoe UI,Arial,sans-serif" font-size="12.5" fill="#667984" text-anchor="start" font-weight="400">Toiture-terrasse</text><line x1="185.4" y1="310.2" x2="308.4" y2="381.2" stroke="#f2a100" stroke-width="19" stroke-linecap="round" opacity="0.28"/><line x1="185.4" y1="310.2" x2="308.4" y2="381.2" stroke="#f2a100" stroke-width="9" stroke-linecap="round"/><line x1="395.0" y1="331.2" x2="308.4" y2="381.2" stroke="#f2a100" stroke-width="19" stroke-linecap="round" opacity="0.28"/><line x1="395.0" y1="331.2" x2="308.4" y2="381.2" stroke="#f2a100" stroke-width="9" stroke-linecap="round"/></svg>