<svg xmlns="http://www.w3.org/2000/svg" viewBox="0 0 660 500" width="100%" role="img" aria-label="Vue axonométrique, jonction repérée"><title>Vue axonométrique, jonction repérée</title><rect width="660" height="500" fill="#ffffff"/><defs>
<pattern id="bois" width="10" height="10" patternUnits="userSpaceOnUse" patternTransform="rotate(45)">
  <rect width="10" height="10" fill="#e3cba4"/>
  <line x1="0" y1="0" x2="0" y2="10" stroke="#a8875a" stroke-width="2"/>
</pattern>
<pattern id="terre" width="12" height="12" patternUnits="userSpaceOnUse" patternTransform="rotate(45)">
  <rect width="12" height="12" fill="#c8b79c"/>
  <line x1="0" y1="0" x2="0" y2="12" stroke="#a08a6b" stroke-width="1.5"/>
</pattern>
<pattern id="isol" width="9" height="9" patternUnits="userSpaceOnUse">
  <rect width="9" height="9" fill="#f7dd9a"/>
  <circle cx="4.5" cy="4.5" r="1.6" fill="#dcae3e"/>
</pattern>
</defs><rect x="26" y="20" width="399" height="26" rx="13" fill="#244b66"/><text x="225.325" y="37.5" font-family="Segoe UI,Arial,sans-serif" font-size="13.5" fill="#ffffff" text-anchor="middle" font-weight="600">Vous saisissez un appartement d'étage courant</text><polygon points="272.0,271.1 450.4,374.1 308.4,456.1 130.0,353.1" fill="url(#terre)" stroke="#a08a6b" stroke-width="1.5"/><polygon points="185.4,353.1 308.4,424.1 308.4,366.1 185.4,295.1" fill="#fdf7ec" stroke="#1c2a33" stroke-width="1.7"/><polygon points="395.0,374.1 308.4,424.1 308.4,366.1 395.0,316.1" fill="#dde7ed" stroke="#1c2a33" stroke-width="1.7"/><line x1="357.6743371481684" y1="370.1" x2="496" y2="370.1" stroke="#b9cad3" stroke-width="1.3" stroke-dasharray="3 3"/><text x="502" y="374.12" font-family="Segoe UI,Arial,sans-serif" font-size="12.5" fill="#667984" text-anchor="start" font-weight="400">Logement chauffé</text><polygon points="272.0,233.1 395.0,304.1 308.4,354.1 185.4,283.1" fill="#dfe8ee" stroke="#1c2a33" stroke-width="1.7"/><polygon points="395.0,304.1 308.4,354.1 308.4,366.1 395.0,316.1" fill="#c2d0d9" stroke="#1c2a33" stroke-width="1.7"/><polygon points="185.4,283.1 308.4,354.1 308.4,366.1 185.4,295.1" fill="#c2d0d9" stroke="#1c2a33" stroke-width="1.7"/><polygon points="185.4,283.1 308.4,354.1 308.4,278.1 185.4,207.1" fill="#eef4f7" stroke="#1c2a33" stroke-width="1.7"/><polygon points="395.0,304.1 308.4,354.1 308.4,278.1 395.0,228.1" fill="#dde7ed" stroke="#1c2a33" stroke-width="1.7"/><line x1="357.6743371481684" y1="291.1" x2="496" y2="291.1" stroke="#b9cad3" stroke-width="1.3" stroke-dasharray="3 3"/><text x="502" y="295.12" font-family="Segoe UI,Arial,sans-serif" font-size="12.5" fill="#244b66" text-anchor="start" font-weight="600">Appartement saisi</text><polygon points="272.0,145.1 395.0,216.1 308.4,266.1 185.4,195.1" fill="#dfe8ee" stroke="#1c2a33" stroke-width="1.7"/><polygon points="395.0,216.1 308.4,266.1 308.4,278.1 395.0,228.1" fill="#c2d0d9" stroke="#1c2a33" stroke-width="1.7"/><polygon points="185.4,195.1 308.4,266.1 308.4,278.1 185.4,207.1" fill="#c2d0d9" stroke="#1c2a33" stroke-width="1.7"/><polygon points="185.4,195.1 308.4,266.1 308.4,220.1 185.4,149.1" fill="#fdf7ec" stroke="#1c2a33" stroke-width="1.7"/><polygon points="395.0,216.1 308.4,266.1 308.4,220.1 395.0,170.1" fill="#dde7ed" stroke="#1c2a33" stroke-width="1.7"/><line x1="357.6743371481684" y1="218.1" x2="496" y2="218.1" stroke="#b9cad3" stroke-width="1.3" stroke-dasharray="3 3"/><text x="502" y="222.12" font-family="Segoe UI,Arial,sans-serif" font-size="12.5" fill="#667984" text-anchor="start" font-weight="400">Logement chauffé</text><line x1="185.4" y1="283.1" x2="308.4" y2="354.1" stroke="#f2a100" stroke-width="19" stroke-linecap="round" opacity="0.28"/><line x1="185.4" y1="283.1" x2="308.4" y2="354.1" stroke="#f2a100" stroke-width="9" stroke-linecap="round"/><line x1="395.0" y1="304.1" x2="308.4" y2="354.1" stroke="#f2a100" stroke-width="19" stroke-linecap="round" opacity="0.28"/><line x1="395.0" y1="304.1" x2="308.4" y2="354.1" stroke="#f2a100" stroke-width="9" stroke-linecap="round"/></svg>