<svg xmlns="http://www.w3.org/2000/svg" viewBox="0 0 660 500" width="100%" role="img" aria-label="Vue axonométrique, jonction repérée"><title>Vue axonométrique, jonction repérée</title><rect width="660" height="500" fill="#ffffff"/><defs>
<pattern id="bois" width="10" height="10" patternUnits="userSpaceOnUse" patternTransform="rotate(45)">
  <rect width="10" height="10" fill="#e3cba4"/>
  <line x1="0" y1="0" x2="0" y2="10" stroke="#a8875a" stroke-width="2"/>
</pattern>
<pattern id="terre" width="12" height="12" patternUnits="userSpaceOnUse" patternTransform="rotate(45)">
  <rect width="12" height="12" fill="#c8b79c"/>
  <line x1="0" y1="0" x2="0" y2="12" stroke="#a08a6b" stroke-width="1.5"/>
</pattern>
<pattern id="isol" width="9" height="9" patternUnits="userSpaceOnUse">
  <rect width="9" height="9" fill="#f7dd9a"/>
  <circle cx="4.5" cy="4.5" r="1.6" fill="#dcae3e"/>
</pattern>
</defs><rect x="26" y="20" width="240" height="26" rx="13" fill="#244b66"/><text x="145.81" y="37.5" font-family="Segoe UI,Arial,sans-serif" font-size="13.5" fill="#ffffff" text-anchor="middle" font-weight="600">Vous saisissez le niveau 1</text><polygon points="272.0,268.0 450.4,371.0 308.4,453.0 130.0,350.0" fill="url(#terre)" stroke="#a08a6b" stroke-width="1.5"/><line x1="357.6743371481684" y1="394.0" x2="496" y2="394.0" stroke="#b9cad3" stroke-width="1.3" stroke-dasharray="3 3"/><text x="502" y="398.0" font-family="Segoe UI,Arial,sans-serif" font-size="12.5" fill="#667984" text-anchor="start" font-weight="400">Terre-plein</text><polygon points="272.0,288.0 395.0,359.0 308.4,409.0 185.4,338.0" fill="#dfe8ee" stroke="#1c2a33" stroke-width="1.7"/><polygon points="395.0,359.0 308.4,409.0 308.4,421.0 395.0,371.0" fill="#c2d0d9" stroke="#1c2a33" stroke-width="1.7"/><polygon points="185.4,338.0 308.4,409.0 308.4,421.0 185.4,350.0" fill="#c2d0d9" stroke="#1c2a33" stroke-width="1.7"/><polygon points="185.4,338.0 308.4,409.0 308.4,333.0 185.4,262.0" fill="#eef4f7" stroke="#1c2a33" stroke-width="1.7"/><polygon points="395.0,359.0 308.4,409.0 308.4,333.0 395.0,283.0" fill="#dde7ed" stroke="#1c2a33" stroke-width="1.7"/><line x1="357.6743371481684" y1="346.0" x2="496" y2="346.0" stroke="#b9cad3" stroke-width="1.3" stroke-dasharray="3 3"/><text x="502" y="350.0" font-family="Segoe UI,Arial,sans-serif" font-size="12.5" fill="#667984" text-anchor="start" font-weight="400">Rez-de-chaussée</text><polygon points="272.0,200.0 395.0,271.0 308.4,321.0 185.4,250.0" fill="url(#bois)" stroke="#1c2a33" stroke-width="1.7"/><polygon points="395.0,271.0 308.4,321.0 308.4,333.0 395.0,283.0" fill="#c9ab7d" stroke="#1c2a33" stroke-width="1.7"/><polygon points="185.4,250.0 308.4,321.0 308.4,333.0 185.4,262.0" fill="#c9ab7d" stroke="#1c2a33" stroke-width="1.7"/><polygon points="185.4,250.0 308.4,321.0 308.4,245.0 185.4,174.0" fill="#eef4f7" stroke="#1c2a33" stroke-width="1.7"/><polygon points="395.0,271.0 308.4,321.0 308.4,245.0 395.0,195.0" fill="#dde7ed" stroke="#1c2a33" stroke-width="1.7"/><line x1="357.6743371481684" y1="258.0" x2="496" y2="258.0" stroke="#b9cad3" stroke-width="1.3" stroke-dasharray="3 3"/><text x="502" y="262.0" font-family="Segoe UI,Arial,sans-serif" font-size="12.5" fill="#667984" text-anchor="start" font-weight="400">Niveau 1</text><line x1="357.6743371481684" y1="297.0" x2="496" y2="297.0" stroke="#b9cad3" stroke-width="1.3" stroke-dasharray="3 3"/><text x="502" y="301.0" font-family="Segoe UI,Arial,sans-serif" font-size="12.5" fill="#667984" text-anchor="start" font-weight="400">Plancher bois</text><polygon points="272.0,112.0 395.0,183.0 308.4,233.0 185.4,162.0" fill="#c6d3dc" stroke="#1c2a33" stroke-width="1.7"/><polygon points="395.0,183.0 308.4,233.0 308.4,245.0 395.0,195.0" fill="#adbcc6" stroke="#1c2a33" stroke-width="1.7"/><polygon points="185.4,162.0 308.4,233.0 308.4,245.0 185.4,174.0" fill="#adbcc6" stroke="#1c2a33" stroke-width="1.7"/><line x1="357.6743371481684" y1="204.0" x2="496" y2="204.0" stroke="#b9cad3" stroke-width="1.3" stroke-dasharray="3 3"/><text x="502" y="208.0" font-family="Segoe UI,Arial,sans-serif" font-size="12.5" fill="#667984" text-anchor="start" font-weight="400">Toiture-terrasse</text><line x1="185.4" y1="250.0" x2="308.4" y2="321.0" stroke="#f2a100" stroke-width="19" stroke-linecap="round" opacity="0.28"/><line x1="185.4" y1="250.0" x2="308.4" y2="321.0" stroke="#f2a100" stroke-width="9" stroke-linecap="round"/><line x1="395.0" y1="271.0" x2="308.4" y2="321.0" stroke="#f2a100" stroke-width="19" stroke-linecap="round" opacity="0.28"/><line x1="395.0" y1="271.0" x2="308.4" y2="321.0" stroke="#f2a100" stroke-width="9" stroke-linecap="round"/></svg>